<svg id="Layer_1" data-name="Layer 1" xmlns="http://www.w3.org/2000/svg" viewBox="0 0 313.92 235.37"><defs><style>.cls-1,.cls-3{fill:#231f20;}.cls-2{fill:#00a14b;}.cls-3{font-size:48px;font-family:YourDoodleFontRegular, Your Doodle Font;}.cls-4{font-family:KristenITC-Regular, Kristen ITC;}</style></defs><path class="cls-1" d="M214.4,386.18c0-6.23-.08-11.72-.11-17.21l16.3.14c0,5.18-.09,10.71-.13,16.83l-5.83-.65c2.62,33.13,30.6,65.51,69.45,69.31l.16-6.29,17.15-.08c-.2,2-.42,4.06-.63,6.16,33-2.51,65.76-31.07,69.34-69.61l-6.06.89c0-6.42-.05-12-.07-17.48h16c0,5.37-.05,10.9-.07,16.93l-6.73-.62c-5.38,35.24-24.68,58.35-57.73,70.13l.06.63c4.4-.1,8.79-.26,13.19-.3,11.9-.1,23.8-.14,35.71-.21.32,0,.71-.12.95,0,.73.43,1.41,1,2.1,1.44-.68.41-1.35,1.14-2,1.16-4.86.12-9.71.1-14.57.12l-48.32.25c-.39,0-.79,0-1.56.08.19,2.29.38,4.52.55,6.61H293.91c.21-1.85.47-4.14.77-6.82-8.79.1-16.87.23-24.95.3-13.11.09-26.22.17-39.33.16-.87,0-1.74-.86-2.61-1.31.91-.44,1.81-1.26,2.73-1.26q22.95-.22,45.91-.24a14.8,14.8,0,0,0,3.4.06c-33.23-11.77-52.65-34.76-58.41-69.94Z" transform="translate(-163.51 -290.24)"/><path class="cls-2" d="M307.22,444.4c-5.65-3.51-10.68-7.14-16.1-9.82-7.93-6.21-5.81-5.39-5.79-10.94a58.52,58.52,0,0,0-4-22.87c-5.65-13.86-10.69-28-16-42a7.69,7.69,0,0,0-1.83-3q0,10.89,0,21.78c0,14.13-.06,28.25.06,42.38a4.85,4.85,0,0,1-2.6,4.84c-6.4,3.89-12.71,7.95-19.57,12.28V314.68H232.2V290.51c7,0,13.9,0,20.81,0,3.44,0,7.63-1,10.1.73s2.88,6.31,4.16,9.67q8.25,21.69,16.46,43.4a4.59,4.59,0,0,0,1.62,2.33v-55.9h21.87Z" transform="translate(-163.51 -290.24)"/><path class="cls-2" d="M318.4,437.16c7.23-4.55,14-8.15,20-12.77,5-3.83,8.89-3.61,14-.06,9.3,6.47,19.11,12.05,28.72,18,1,.59,1.93,1.15,3.35,2,.14-1.39.33-2.39.33-3.4,0-10.83-.05-21.66.06-32.49a4.81,4.81,0,0,0-2.63-4.84c-6.35-3.77-12.59-7.75-19.31-11.92v11.39c-1.19-.57-2-.87-2.68-1.3-5.64-3.46-11.21-7.08-16.93-10.36-2.1-1.2-2.72-2.6-2.71-5.08q.12-45.45,0-90.89v-4.64H309.48v23.67h8.92Z" transform="translate(-163.51 -290.24)"/><text class="cls-3" transform="translate(0 219.43)">N<tspan class="cls-4" x="30.05" y="0">atue</tspan><tspan x="136.81" y="0">L S</tspan><tspan class="cls-4" x="186.63" y="0">tudio</tspan></text></svg>